<svg width="13" height="13" viewBox="0 0 13 13" fill="none" xmlns="http://www.w3.org/2000/svg">
<path d="M5.95364 10.0807C5.95364 10.2812 6.0333 10.4735 6.17509 10.6153C6.31687 10.7571 6.50918 10.8367 6.70969 10.8367C6.91021 10.8367 7.10251 10.7571 7.2443 10.6153C7.38609 10.4735 7.46574 10.2812 7.46574 10.0807V6.80447H10.742C10.9425 6.80447 11.1348 6.72482 11.2766 6.58303C11.4183 6.44124 11.498 6.24894 11.498 6.04842C11.498 5.84791 11.4183 5.6556 11.2766 5.51382C11.1348 5.37203 10.9425 5.29237 10.742 5.29237H7.46574V2.01616C7.46574 1.81565 7.38609 1.62334 7.2443 1.48156C7.10251 1.33977 6.91021 1.26012 6.70969 1.26012C6.50918 1.26012 6.31687 1.33977 6.17509 1.48156C6.0333 1.62334 5.95364 1.81565 5.95364 2.01616V5.29237H2.67744C2.47692 5.29237 2.28461 5.37203 2.14283 5.51382C2.00104 5.6556 1.92139 5.84791 1.92139 6.04842C1.92139 6.24894 2.00104 6.44124 2.14283 6.58303C2.28461 6.72482 2.47692 6.80447 2.67744 6.80447H5.95364V10.0807Z" fill="white"/>
</svg>
